<?xml version="1.0" standalone="no"?>
<!DOCTYPE svg PUBLIC "-//W3C//DTD SVG 20010904//EN"
 "http://www.w3.org/TR/2001/REC-SVG-20010904/DTD/svg10.dtd">
<svg version="1.0" xmlns="http://www.w3.org/2000/svg"
 width="16.000000pt" height="16.000000pt" viewBox="0 0 16.000000 16.000000"
 preserveAspectRatio="xMidYMid meet">

<g transform="translate(0.000000,16.000000) scale(0.100000,-0.100000)"
fill="#000000" stroke="none">
<path d="M58 150 c-9 -6 -20 -25 -23 -43 -4 -17 -12 -37 -17 -44 -6 -7 -5 -19
4 -32 15 -25 21 -26 38 -6 10 12 10 19 2 27 -20 20 -13 30 21 28 17 -1 35 -1
40 0 4 1 13 3 19 4 24 2 19 34 -8 55 -29 23 -50 26 -76 11z"/>
</g>
</svg>
