<svg version="1.1" id="Layer_1" xmlns="http://www.w3.org/2000/svg" xmlns:xlink="http://www.w3.org/1999/xlink" x="0px" y="0px"
	 width="100%" viewBox="0 0 500 185" enable-background="new 0 0 500 185" xml:space="preserve">
<path fill="#000000" opacity="1.000000" stroke="none" 
	d="
M37.000000,1.000000 
	C191.558060,1.000000 346.116119,1.000000 501.000000,1.000000 
	C501.000000,53.020981 501.000000,105.042641 500.531342,157.532379 
	C345.814880,158.000473 191.567108,158.000473 37.000000,158.000473 
	C37.000000,105.264534 37.000000,53.132267 37.000000,1.000000 
M77.154282,93.321938 
	C77.463150,96.467339 77.674149,99.625954 78.096558,102.756035 
	C81.146927,125.359367 95.165421,141.848190 115.796471,146.911469 
	C135.432388,151.730545 154.025314,148.382385 171.764145,139.245270 
	C172.732712,138.746384 173.854233,137.412109 173.892303,136.427536 
	C174.100281,131.050323 173.991333,125.660866 173.991333,119.457138 
	C172.357117,120.601158 171.523483,121.075905 170.817154,121.695740 
	C162.084717,129.358917 151.993515,133.857529 140.473465,135.628952 
	C120.542961,138.693680 103.203491,129.020828 96.654129,110.047440 
	C91.604797,95.419601 91.839752,80.482216 97.337631,65.987801 
	C103.152153,50.658634 116.005241,42.245686 132.489975,41.993862 
	C146.986618,41.772408 159.375015,47.114513 170.463516,56.050724 
	C171.387985,56.795757 172.441605,57.380569 174.003281,58.416729 
	C174.003281,52.531277 174.264877,47.524426 173.856094,42.572922 
	C173.719849,40.922775 172.226608,38.713978 170.741882,37.950703 
	C157.464890,31.125189 143.292953,27.839172 128.380875,29.155750 
	C107.500191,30.999292 91.280449,40.193001 82.557610,60.139954 
	C78.071243,70.399170 76.770721,81.258652 77.154282,93.321938 
M188.834488,111.713562 
	C190.376465,128.887848 200.345291,141.638870 216.393372,146.549103 
	C232.567368,151.497879 248.217545,148.865326 263.510376,142.686813 
	C264.412262,142.322433 265.601074,141.208344 265.636078,140.398987 
	C265.838745,135.712753 265.735077,131.013275 265.735077,127.377106 
	C257.022339,130.211624 248.917587,134.007355 240.420914,135.383896 
	C219.337463,138.799591 202.965759,127.205597 203.667023,105.058304 
	C224.721039,105.058304 245.796234,105.058304 267.934265,105.058304 
	C267.132385,97.130844 267.046539,89.598305 265.473022,82.390541 
	C263.431885,73.041008 257.865814,65.556778 248.898956,61.736755 
	C234.588913,55.640461 220.136078,55.961483 207.022400,64.678505 
	C190.532867,75.639549 187.256241,92.442535 188.834488,111.713562 
M332.912842,58.346386 
	C319.494415,56.962456 306.996887,58.976948 296.698639,68.541626 
	C284.894409,79.505028 282.548248,93.743187 283.502960,108.825165 
	C284.380096,122.681755 288.806732,135.221436 301.436737,142.647873 
	C318.295471,152.560837 335.462921,150.455063 352.326874,142.097641 
	C353.034821,141.746796 353.792603,140.659714 353.813721,139.895905 
	C353.948151,135.030823 353.882111,130.160187 353.882111,125.560371 
	C347.289642,128.722610 341.448425,132.403244 335.079681,134.407761 
	C318.723022,139.555893 304.135681,132.622910 300.643433,117.633102 
	C298.908966,110.188202 298.482025,101.986626 299.562347,94.427307 
	C302.232819,75.740868 316.935150,66.851791 334.969574,72.586105 
	C341.447021,74.645721 347.404388,78.340950 353.496857,81.241035 
	C353.876221,62.223362 357.512177,65.927956 339.082458,59.797298 
	C337.366852,59.226597 335.533813,59.009014 332.912842,58.346386 
M443.300171,20.001610 
	C440.890472,20.001610 438.480774,20.001610 435.834778,20.001610 
	C435.834778,23.697027 435.834778,26.644156 435.834778,30.012665 
	C427.522003,30.012665 419.452637,30.012665 411.227600,30.012665 
	C411.227600,33.515274 411.227600,36.586124 411.227600,39.644924 
	C412.967438,39.943558 414.485626,40.204151 415.762756,40.423363 
	C415.762756,45.478184 415.762756,50.093357 415.762756,54.896839 
	C414.125916,54.975697 412.716156,55.043610 411.270142,55.113274 
	C411.270142,58.567356 411.270142,61.632839 411.270142,65.118607 
	C419.598877,65.118607 427.666229,65.118607 436.151855,65.118607 
	C436.151855,68.612617 436.151855,71.684479 436.151855,74.691833 
	C441.316803,74.691833 446.043549,74.691833 451.198547,74.691833 
	C451.198547,67.991882 451.198547,61.592331 451.198547,54.779602 
	C456.369232,54.779602 461.107361,54.779602 465.834717,54.779602 
	C465.834717,51.392570 465.834717,48.438721 465.834717,45.301025 
	C464.165100,45.059647 462.624817,44.836964 461.234283,44.635933 
	C461.008301,42.909393 460.825165,41.510197 460.589569,39.710403 
	C457.222198,39.710403 454.158112,39.710403 450.865051,39.710403 
	C450.865051,34.639305 450.865051,30.017754 450.865051,25.110743 
	C449.228149,25.037334 447.810272,24.973749 447.229706,24.947714 
	C445.983795,22.899864 445.104004,21.453804 443.300171,20.001610 
M372.153839,112.499954 
	C372.153839,123.926750 372.153839,135.353546 372.153839,146.703766 
	C377.480469,146.703766 382.071533,146.703766 386.652222,146.703766 
	C386.652222,117.678833 386.652222,88.961990 386.652222,60.301079 
	C381.709015,60.301079 377.124420,60.301079 372.153870,60.301079 
	C372.153870,77.573112 372.153870,94.536530 372.153839,112.499954 
M387.092896,45.893436 
	C388.393829,43.502411 390.463409,41.231522 390.859222,38.699032 
	C392.371918,29.020226 391.232697,28.402416 383.128479,22.813410 
	C377.584167,18.989841 375.279083,24.413729 371.500366,25.321438 
	C369.030853,25.914661 368.032043,28.266230 367.816772,31.357710 
	C367.427704,36.945126 369.049530,41.547630 372.300232,45.985806 
	C376.885132,45.985806 381.554443,45.985806 387.092896,45.893436 
M55.358292,141.113617 
	C56.164867,143.553909 56.852062,146.042618 57.815647,148.419250 
	C58.591991,150.334061 59.702316,152.113449 60.664459,153.952927 
	C61.488586,152.161453 62.721706,150.443665 63.060200,148.564713 
	C64.077370,142.918549 67.152107,139.767242 72.870903,138.866882 
	C74.328514,138.637405 75.597984,137.212921 76.953903,136.337494 
	C75.488815,135.560333 74.105148,134.459930 72.543396,134.066483 
	C67.819427,132.876465 63.954727,131.303757 63.551895,125.370552 
	C63.404564,123.200577 61.419632,121.155357 60.273003,119.053230 
	C59.284435,121.142868 57.571339,123.190750 57.448048,125.330246 
	C57.124702,130.941193 53.562710,132.748428 49.007542,133.998947 
	C47.294426,134.469238 45.710434,135.409882 42.654850,136.760590 
	C47.618633,138.532639 51.082481,139.769211 55.358292,141.113617 
z"/>
<path fill="#000000" opacity="1.000000" stroke="none" 
	d="
M501.000000,171.000000 
	C501.000000,175.996979 501.000000,180.993973 501.000000,185.993225 
	C334.436951,185.995483 167.873932,185.995483 1.155447,185.995483 
	C1.155447,124.333626 1.155447,62.666862 1.155447,1.000000 
	C9.072297,1.000000 17.067469,1.000000 25.531321,1.468657 
	C26.000000,58.193871 26.000000,114.450424 26.000000,171.000000 
	C184.752838,171.000000 342.876404,171.000000 501.000000,171.000000 
z"/>
<path fill="#00A2E8" opacity="1.000000" stroke="none" 
	d="
M501.000000,170.536819 
	C342.876404,171.000000 184.752838,171.000000 26.000000,171.000000 
	C26.000000,114.450424 26.000000,58.193871 26.000000,1.468657 
	C29.361288,1.000000 32.722576,1.000000 36.541931,1.000000 
	C37.000000,53.132267 37.000000,105.264534 37.000000,158.000473 
	C191.567108,158.000473 345.814880,158.000473 500.531342,158.000244 
	C501.000000,162.024551 501.000000,166.049088 501.000000,170.536819 
z"/>
<path fill="#B2E21C" opacity="1.000000" stroke="none" 
	d="
M77.142914,92.844246 
	C76.770721,81.258652 78.071243,70.399170 82.557610,60.139954 
	C91.280449,40.193001 107.500191,30.999292 128.380875,29.155750 
	C143.292953,27.839172 157.464890,31.125189 170.741882,37.950703 
	C172.226608,38.713978 173.719849,40.922775 173.856094,42.572922 
	C174.264877,47.524426 174.003281,52.531277 174.003281,58.416729 
	C172.441605,57.380569 171.387985,56.795757 170.463516,56.050724 
	C159.375015,47.114513 146.986618,41.772408 132.489975,41.993862 
	C116.005241,42.245686 103.152153,50.658634 97.337631,65.987801 
	C91.839752,80.482216 91.604797,95.419601 96.654129,110.047440 
	C103.203491,129.020828 120.542961,138.693680 140.473465,135.628952 
	C151.993515,133.857529 162.084717,129.358917 170.817154,121.695740 
	C171.523483,121.075905 172.357117,120.601158 173.991333,119.457138 
	C173.991333,125.660866 174.100281,131.050323 173.892303,136.427536 
	C173.854233,137.412109 172.732712,138.746384 171.764145,139.245270 
	C154.025314,148.382385 135.432388,151.730545 115.796471,146.911469 
	C95.165421,141.848190 81.146927,125.359367 78.096558,102.756035 
	C77.674149,99.625954 77.463150,96.467339 77.142914,92.844246 
z"/>
<path fill="#B2E31C" opacity="1.000000" stroke="none" 
	d="
M188.766174,111.273529 
	C187.256241,92.442535 190.532867,75.639549 207.022400,64.678505 
	C220.136078,55.961483 234.588913,55.640461 248.898956,61.736755 
	C257.865814,65.556778 263.431885,73.041008 265.473022,82.390541 
	C267.046539,89.598305 267.132385,97.130844 267.934265,105.058304 
	C245.796234,105.058304 224.721039,105.058304 203.667023,105.058304 
	C202.965759,127.205597 219.337463,138.799591 240.420914,135.383896 
	C248.917587,134.007355 257.022339,130.211624 265.735077,127.377106 
	C265.735077,131.013275 265.838745,135.712753 265.636078,140.398987 
	C265.601074,141.208344 264.412262,142.322433 263.510376,142.686813 
	C248.217545,148.865326 232.567368,151.497879 216.393372,146.549103 
	C200.345291,141.638870 190.376465,128.887848 188.766174,111.273529 
M217.506866,93.996201 
	C229.261871,93.996201 241.016861,93.996201 252.735901,93.996201 
	C253.263306,78.567123 244.517334,69.844658 229.380341,70.004326 
	C215.004242,70.155968 203.332489,81.064751 204.106796,93.996201 
	C208.221237,93.996201 212.365311,93.996201 217.506866,93.996201 
z"/>
<path fill="#B2E11C" opacity="1.000000" stroke="none" 
	d="
M333.334045,58.486931 
	C335.533813,59.009014 337.366852,59.226597 339.082458,59.797298 
	C357.512177,65.927956 353.876221,62.223362 353.496857,81.241035 
	C347.404388,78.340950 341.447021,74.645721 334.969574,72.586105 
	C316.935150,66.851791 302.232819,75.740868 299.562347,94.427307 
	C298.482025,101.986626 298.908966,110.188202 300.643433,117.633102 
	C304.135681,132.622910 318.723022,139.555893 335.079681,134.407761 
	C341.448425,132.403244 347.289642,128.722610 353.882111,125.560371 
	C353.882111,130.160187 353.948151,135.030823 353.813721,139.895905 
	C353.792603,140.659714 353.034821,141.746796 352.326874,142.097641 
	C335.462921,150.455063 318.295471,152.560837 301.436737,142.647873 
	C288.806732,135.221436 284.380096,122.681755 283.502960,108.825165 
	C282.548248,93.743187 284.894409,79.505028 296.698639,68.541626 
	C306.996887,58.976948 319.494415,56.962456 333.334045,58.486931 
z"/>
<path fill="#FFF200" opacity="1.000000" stroke="none" 
	d="
M443.762207,20.004677 
	C445.104004,21.453804 445.983795,22.899864 447.229706,24.947714 
	C447.810272,24.973749 449.228149,25.037334 450.865051,25.110743 
	C450.865051,30.017754 450.865051,34.639305 450.865051,39.710403 
	C454.158112,39.710403 457.222198,39.710403 460.589569,39.710403 
	C460.825165,41.510197 461.008301,42.909393 461.234283,44.635933 
	C462.624817,44.836964 464.165100,45.059647 465.834717,45.301025 
	C465.834717,48.438721 465.834717,51.392570 465.834717,54.779602 
	C461.107361,54.779602 456.369232,54.779602 451.198547,54.779602 
	C451.198547,61.592331 451.198547,67.991882 451.198547,74.691833 
	C446.043549,74.691833 441.316803,74.691833 436.151855,74.691833 
	C436.151855,71.684479 436.151855,68.612617 436.151855,65.118607 
	C427.666229,65.118607 419.598877,65.118607 411.270142,65.118607 
	C411.270142,61.632839 411.270142,58.567356 411.270142,55.113274 
	C412.716156,55.043610 414.125916,54.975697 415.762756,54.896839 
	C415.762756,50.093357 415.762756,45.478184 415.762756,40.423363 
	C414.485626,40.204151 412.967438,39.943558 411.227600,39.644924 
	C411.227600,36.586124 411.227600,33.515274 411.227600,30.012665 
	C419.452637,30.012665 427.522003,30.012665 435.834778,30.012665 
	C435.834778,26.644156 435.834778,23.697027 435.834778,20.001610 
	C438.480774,20.001610 440.890472,20.001610 443.762207,20.004677 
z"/>
<path fill="#B0E21C" opacity="1.000000" stroke="none" 
	d="
M372.153870,111.999954 
	C372.153870,94.536530 372.153870,77.573112 372.153870,60.301079 
	C377.124420,60.301079 381.709015,60.301079 386.652222,60.301079 
	C386.652222,88.961990 386.652222,117.678833 386.652222,146.703766 
	C382.071533,146.703766 377.480469,146.703766 372.153839,146.703766 
	C372.153839,135.353546 372.153839,123.926750 372.153870,111.999954 
z"/>
<path fill="#B4E61D" opacity="1.000000" stroke="none" 
	d="
M386.658325,45.939621 
	C381.554443,45.985806 376.885132,45.985806 372.300232,45.985806 
	C369.049530,41.547630 367.427704,36.945126 367.816772,31.357710 
	C368.032043,28.266230 369.030853,25.914661 371.500366,25.321438 
	C375.279083,24.413729 377.584167,18.989841 383.128479,22.813410 
	C391.232697,28.402416 392.371918,29.020226 390.859222,38.699032 
	C390.463409,41.231522 388.393829,43.502411 386.658325,45.939621 
M384.114380,30.998653 
	C385.393646,30.937304 386.672882,30.875954 388.823975,30.772793 
	C380.909882,23.267136 374.584839,23.572008 371.208405,30.998716 
	C375.309723,30.998716 379.259094,30.998716 384.114380,30.998653 
z"/>
<path fill="#FF7F27" opacity="1.000000" stroke="none" 
	d="
M54.952309,141.059692 
	C51.082481,139.769211 47.618633,138.532639 42.654850,136.760590 
	C45.710434,135.409882 47.294426,134.469238 49.007542,133.998947 
	C53.562710,132.748428 57.124702,130.941193 57.448048,125.330246 
	C57.571339,123.190750 59.284435,121.142868 60.273003,119.053230 
	C61.419632,121.155357 63.404564,123.200577 63.551895,125.370552 
	C63.954727,131.303757 67.819427,132.876465 72.543396,134.066483 
	C74.105148,134.459930 75.488815,135.560333 76.953903,136.337494 
	C75.597984,137.212921 74.328514,138.637405 72.870903,138.866882 
	C67.152107,139.767242 64.077370,142.918549 63.060200,148.564713 
	C62.721706,150.443665 61.488586,152.161453 60.664459,153.952927 
	C59.702316,152.113449 58.591991,150.334061 57.815647,148.419250 
	C56.852062,146.042618 56.164867,143.553909 54.952309,141.059692 
z"/>
<path fill="#010200" opacity="1.000000" stroke="none" 
	d="
M217.008133,93.996201 
	C212.365311,93.996201 208.221237,93.996201 204.106796,93.996201 
	C203.332489,81.064751 215.004242,70.155968 229.380341,70.004326 
	C244.517334,69.844658 253.263306,78.567123 252.735901,93.996201 
	C241.016861,93.996201 229.261871,93.996201 217.008133,93.996201 
z"/>
<path fill="#000000" opacity="1.000000" stroke="none" 
	d="
M383.661407,30.998684 
	C379.259094,30.998716 375.309723,30.998716 371.208405,30.998716 
	C374.584839,23.572008 380.909882,23.267136 388.823975,30.772793 
	C386.672882,30.875954 385.393646,30.937304 383.661407,30.998684 
z"/>
</svg>